<?xml version="1.0" encoding="UTF-8"?>
<!-- Generated by Pixelmator Pro 3.3.1 -->
<svg width="128" height="128" viewBox="0 0 128 128" xmlns="http://www.w3.org/2000/svg" xmlns:xlink="http://www.w3.org/1999/xlink">
    <path id="Rectangle" fill="#ffffff" fill-rule="evenodd" stroke="none" d="M 0 128 L 128 128 L 128 0 L 0 0 Z"/>
    <path id="Path" fill="#010101" stroke="none" d="M 44.439999 100.629997 C 40.209999 97.300003 35.700001 94.110001 32.610001 89.620003 C 26.120001 81.699997 21.120001 72.519997 17.709999 62.880005 C 15.64 56.610001 14.94 49.889999 12.27 43.860001 C 9.49 39.479996 12.75 34.699997 17.540001 33.309998 C 19.67 32.900002 23.43 30.879997 18.9 32.330002 C 14.84 35.309998 14.45 29.620003 18.610001 29.260002 C 21.450001 28.879997 22.5 26.559998 21.530001 24.459999 C 18.48 22.470001 28.93 20.279999 23.67 17.309998 C 18.190001 11.400002 31.33 10.260002 28.09 16.979996 C 27.32 22.139999 37.27 16.029999 34.959999 21.989998 C 37.310001 24.849998 43.759998 22.639999 43.59 26.660004 C 47.009998 26.900002 48.189999 29.770004 51.389999 29.989998 C 54.720001 31.489998 60.75 32.68 61.880001 36.43 C 58.580002 39.040001 50.93 31.029999 50.57 38.270004 C 51.57 48.959999 51.310001 59.970001 55.220001 70.150002 C 57.07 76.309998 61.549999 81.160004 65.599998 85.959999 C 69.480003 90.660004 74.720001 93.970001 80.080002 96.760002 C 84.769997 98.970001 89.830002 100.440002 94.949997 101.360001 C 97.019997 99.769997 100.690002 93.879997 103.919998 96.360001 C 104.080002 99.160004 97.5 102.199997 103.610001 101.900002 C 107.199997 100.82 109.690002 104.669998 112.650002 101.190002 C 115.370003 104.419998 123.970001 99.129997 122.029999 105.720001 C 119.410004 107.410004 115.589996 106.389999 112.959999 108.720001 C 108.629997 106.559998 105.190002 110.650002 100.400002 110.139999 C 95.080002 111.089996 89.669998 111.480003 84.269997 111.480003 C 75.419998 110.779999 66.379997 110.489998 57.970001 107.410004 C 53.23 106.029999 48.599998 103.330002 44.439999 100.629997 Z M 51.91 103.870003 C 56.540001 105.870003 61.07 107.980003 66.139999 108.620003 C 74.190002 109.739998 82.510002 111.459999 90.589996 109.889999 C 86.93 108.239998 83.150002 110.529999 79.510002 108.709999 C 75.139999 109.650002 70.449997 108.470001 66.010002 107.889999 C 60.959999 105.639999 55.509998 104.089996 50.779999 101.169998 C 44.869999 99.010002 53.84 103.940002 55.43 104.339996 C 59.119999 106.440002 51.369999 103.260002 50.27 102.389999 C 47.18 100.650002 46.779999 101.019997 49.959999 102.779999 C 50.599998 103.150002 51.240002 103.550003 51.91 103.870003 Z M 43.099998 97.639999 C 47.59 99.300003 43.080002 94.480003 41.029999 94.760002 C 40.119999 93.18 37.549999 92.18 39.360001 91.330002 C 36.099998 92.459999 35.939999 87.029999 34.41 87.800003 C 30.959999 86.709999 33.07 82.849998 28.959999 80.480003 C 28.59 77.980003 24.879999 75.82 23.700001 72.050003 C 23.18 70.120003 19.51 64.589996 21.76 69.739998 C 23.68 74.699997 27.049999 78.949997 29.860001 83.190002 C 32.040001 87.230003 34.619999 91.449997 38.580002 93.970001 C 39.919998 95.269997 41.209999 97.239998 43.099998 97.639999 Z M 30.17 83.449997 C 30.33 82.769997 30.99 84.910004 30.17 83.449997 Z M 48.470001 99.629997 C 49.470001 99.190002 47.040001 99.07 48.470001 99.629997 Z M 50.91 100.519997 C 50.66 99.290001 49.799999 101.209999 50.91 100.519997 Z M 53.959999 101.790001 C 55.41 100.410004 51.720001 100.919998 53.959999 101.790001 Z M 59.18 104.699997 C 60.07 103.400002 56.360001 104.209999 59.18 104.699997 Z M 49.150002 97.709999 C 51.400002 96.25 46.240002 97.690002 49.150002 97.709999 Z M 51.439999 98.849998 C 51.369999 98.080002 50.619999 99.190002 51.439999 98.849998 Z M 62.869999 105.980003 C 64.709999 107.139999 73.599998 108.519997 68.029999 106.459999 C 67.099998 106.660004 57.700001 103.800003 62.869999 105.980003 Z M 44.720001 91.849998 C 44.540001 91.080002 41.869999 91 44.720001 91.849998 Z M 50.040001 94.949997 C 51.43 93.989998 47.169998 94.209999 50.040001 94.949997 Z M 54.52 97.699997 C 56.5 96.949997 51.290001 96.949997 54.52 97.699997 Z M 42.549999 89.489998 C 44.709999 91.139999 51.25 89.699997 45.849998 88.5 C 43.400002 87.190002 37.860001 86.300003 41.630001 89.290001 L 42.549999 89.489998 Z M 57.549999 98.650002 C 58.450001 97.120003 53.779999 97.769997 57.549999 98.650002 Z M 52.990002 95.019997 C 58.259998 96.510002 48.560001 91.68 51.689999 94.470001 L 52.389999 94.790001 L 52.990002 95.019997 Z M 62.130001 100.300003 C 67.120003 100.349998 57.619999 99.620003 62.130001 100.300003 Z M 40.630001 86.599998 C 40.439999 85.669998 39.400002 86.68 40.630001 86.599998 Z M 70.57 105.040001 C 70.709999 103.360001 68.949997 106.290001 70.57 105.040001 Z M 49.150002 91.82 C 48.849998 90.940002 47.59 91.779999 49.150002 91.82 Z M 41.110001 86.019997 C 43.970001 85.849998 37.18 84.760002 41.110001 86.019997 Z M 31.57 79.860001 C 31.209999 78.480003 28.450001 77.389999 31.57 79.860001 Z M 56.599998 95.739998 C 56.080002 95.139999 56.349998 95.870003 56.599998 95.739998 Z M 72.18 105.300003 C 72.129997 104.389999 71.330002 105.650002 72.18 105.300003 Z M 55.220001 94.32 C 55.5 93.139999 52.779999 93.959999 55.220001 94.32 Z M 43.619999 86.959999 C 45.75 86.730003 40.200001 85.519997 43.619999 86.959999 Z M 63.25 99.160004 C 66.57 97.839996 60.009998 98.519997 63.25 99.160004 Z M 53.040001 92.230003 C 56.869999 92.720001 48.48 89.620003 52.200001 91.949997 L 53.040001 92.230003 Z M 66.349998 100.419998 C 69.93 98.279999 68.75 105.43 72.419998 101.019997 C 76.040001 98.379997 69.290001 104.290001 73.75 101.489998 C 76.980003 99.330002 81.739998 102.510002 84.75 103.550003 C 86.910004 103.440002 89.019997 105.419998 91.239998 104.220001 C 95.510002 103.07 82.879997 102.510002 86.190002 100.470001 C 82.279999 101.610001 79.389999 99.110001 77.470001 96.610001 C 73.080002 95.599998 68.010002 93.360001 65.82 89.470001 C 64.93 88.010002 67.110001 89.68 65.050003 87.290001 C 62.41 84.940002 61.09 82.269997 59.32 79.410004 C 57.200001 78.279999 56.950001 74.949997 56.740002 79.300003 C 56.759998 76.559998 54.18 74.709999 53.549999 75.480003 C 53.540001 72.839996 56.310001 74.160004 54.369999 72.209999 C 53.950001 69.470001 52.580002 66.620003 52.169998 63.529999 C 51.529999 62.040001 52.080002 58.849998 49.98 62.220001 C 49.220001 65.790001 49.73 57.839996 50.919998 60.459999 C 52.48 57.790001 50.360001 58.099998 50.27 58.470001 C 51.290001 56.209999 50.91 53.009995 50 54.229996 C 50.540001 51.839996 50.860001 45.43 49.189999 46.57 C 50.200001 44.07 51.110001 35.130005 46.720001 38.540001 C 44.939999 38.57 41.869999 39.18 40.41 39.910004 C 44.970001 42.419998 39.950001 40.82 38.09 40.419998 C 37.849998 42.75 36.009998 41.740005 33.709999 41.759995 C 37.380001 42.209999 31.92 45.509995 29.82 44.229996 C 27.08 45.540001 32.18 48.800003 29.870001 49.809998 C 30.15 51.330002 25.68 49.259995 26.030001 52.770004 C 23.379999 51.650002 25.67 56.93 26.99 55.150002 C 31.5 56.369995 30.17 59.160004 30.280001 61.800003 C 29.540001 63.339996 26.65 58.18 29.639999 58.419998 C 27.280001 54.589996 27.030001 57.040001 25.08 58.809998 C 24.629999 58.940002 30.07 61.339996 26.65 62.529999 C 29.66 63 29.75 65.629997 30.360001 67.290001 C 32.169998 69.169998 31.799999 65.209999 33.959999 67.470001 C 32.59 65.449997 26.709999 61.790001 31.440001 62.959999 C 31.41 60.93 30.58 59.290001 32.040001 59.330002 C 33.48 56.729996 30.530001 65.75 33.77 62.440002 C 34.669998 62.050003 34.889999 59.839996 36.5 62.650002 C 38.84 64.949997 37.349998 66.620003 34.040001 64.510002 C 34.630001 66.519997 38.459999 67.230003 37.740002 70.370003 C 38.5 73.129997 39.57 72.110001 40.5 71.949997 C 41.23 74.629997 41.639999 72.660004 41.68 71.379997 C 45.02 72.099998 44.240002 74.07 45.279999 75.449997 C 47.580002 76.489998 41.990002 68.410004 45.939999 73.019997 C 50.099998 76.769997 47.5 78.339996 43.77 77.739998 C 46.130001 77.550003 46.889999 80.93 49.84 80.809998 C 52.529999 82.089996 54.360001 87.010002 49.720001 84.959999 C 48.110001 83.510002 42.41 81.720001 47.07 84.480003 C 51.369999 86.470001 54.779999 87.660004 58.93 90.160004 C 61.889999 92.279999 63.18 94.699997 64.300003 95.18 C 61.810001 96.370003 56.790001 94.230003 60.52 93.57 C 58.189999 93.150002 55.580002 91.970001 57.810001 94.870003 C 59.700001 96.449997 64.519997 96.290001 65.389999 96.459999 C 64.660004 98.07 63.400002 98.199997 65.419998 98.32 C 63.169998 99.540001 66.139999 99.730003 66.349998 100.419998 Z M 61.75 87.419998 C 60.380001 85.989998 60.029999 83.309998 61.509998 85.639999 C 62.259998 85.940002 63.939999 90.019997 61.75 87.419998 Z M 76.739998 96.940002 C 77.589996 96.879997 76.760002 97.589996 76.739998 96.940002 Z M 59.59 83.910004 C 59.529999 81.739998 60.080002 85.580002 59.59 83.910004 Z M 58.099998 81.900002 C 56.369999 78.580002 60.27 82.849998 58.099998 81.900002 Z M 40.040001 69.440002 C 41.049999 69.169998 40.540001 71.169998 40.040001 69.440002 Z M 54.41 77.230003 C 55.029999 74.900002 55.139999 79.190002 54.41 77.230003 Z M 44.259998 70.169998 C 43.549999 68.879997 45.759998 71.379997 44.259998 70.169998 Z M 52.970001 72.959999 C 51.34 69.309998 54.130001 70.959999 53.330002 73.559998 L 52.970001 72.959999 Z M 37.950001 62.949997 C 37.220001 61.75 36.02 58.229996 36.400002 57.160004 C 36.75 58.910004 40.119999 64.690002 38.049999 59.550003 C 35.77 55.25 40.779999 60.949997 41.299999 62.020004 C 41.540001 63.089996 39.889999 61.729996 41.009998 64.230003 C 38.970001 61.380005 39.810001 65.809998 37.950001 62.949997 Z M 33.310001 59.75 C 33.5 56.959999 34.369999 61.660004 33.310001 59.75 Z M 35.389999 60.470001 C 36.389999 58.360001 37.080002 63.400002 35.389999 60.470001 Z M 30.370001 56.580002 C 28.639999 54.860001 27.389999 53.279999 30.450001 55.509995 C 31.629999 55.559998 27.83 51.910004 30.73 54.349998 C 33.790001 54.910004 32.240002 59.360001 30.370001 56.580002 Z M 33.009998 56.509995 C 34.009998 55.520004 33.540001 57.490005 33.009998 56.509995 Z M 34.630001 57.029999 C 33.110001 54.18 36.48 58.229996 34.630001 57.029999 Z M 31.41 53.949997 C 26.389999 49.479996 37.720001 56.290001 32.23 54.779999 L 31.41 53.949997 Z M 45.799999 62.309998 C 43.619999 61.009995 45.220001 53.130005 45.959999 58.520004 C 48.07 57.839996 45.84 61.300003 47.419998 61.270004 C 47.18 63.449997 46.470001 64.239998 45.799999 62.309998 Z M 51.130001 65.459999 C 51.34 63.080002 51.580002 67.080002 51.130001 65.459999 Z M 50.200001 64.540001 C 50.439999 63.529999 50.23 65.739998 50.200001 64.540001 Z M 32.389999 52.479996 C 29.16 48.029999 41.77 56.990005 34.459999 53.610001 C 33.689999 53.400002 32.77 53.330002 32.389999 52.479996 Z M 42.650002 57.910004 C 42.34 54.160004 43.330002 58.529999 42.650002 57.910004 Z M 50.43 62.910004 C 51.029999 60.770004 50.48 64.32 50.43 62.910004 Z M 32.889999 50.779999 C 34.810001 50.369995 40.84 54.150002 35.299999 51.860001 C 34.68 51.169998 33.369999 51.479996 32.889999 50.779999 Z M 49.360001 58.990005 C 49.560001 55.150002 50.509998 56.699997 49.369999 59.540001 L 49.360001 58.990005 Z M 34.310001 49.440002 C 35.09 48.290001 32.23 44.259995 34.720001 47.990005 C 35.799999 48.839996 37.830002 49.419998 36.029999 49.779999 C 38.869999 52.279999 35.349998 50.459999 34.310001 49.440002 Z M 48.549999 57.790001 C 49.09 53.419998 49.02 60.349998 48.549999 57.790001 Z M 32.68 45.410004 C 33.279999 45.150002 33 46.199997 32.68 45.410004 Z M 36.389999 47.619995 C 37.349998 45.610001 38.16 49.849998 36.389999 47.619995 Z M 46.860001 53.440002 C 46.860001 52.669998 47.060001 54.559998 46.860001 53.440002 Z M 46.259998 52.099998 C 44.810001 48.509995 47.610001 54 46.259998 52.099998 Z M 45.369999 49.75 C 45.119999 48.270004 46.200001 51.610001 45.369999 49.75 Z M 46.82 47.389999 C 45.82 45.630005 48.080002 39.639999 48.330002 43.360001 C 47.279999 46.25 48.029999 47.869995 48.759998 43.990005 C 50.119999 40.93 48.470001 50.009995 46.82 47.389999 Z M 48.310001 38.479996 C 48.75 37.949997 48.41 39.130005 48.310001 38.479996 Z M 45.82 87.599998 C 45.23 87.080002 45.889999 87.93 45.82 87.599998 Z M 50.950001 90.199997 C 53.810001 90.940002 53.790001 89.760002 51.209999 89.410004 C 49.82 88.120003 45.439999 86.75 49.360001 89.25 C 49.630001 89.900002 50.450001 89.879997 50.950001 90.199997 Z M 40.810001 83.459999 C 42.380001 84.639999 46.740002 86.779999 43.049999 83.910004 C 44.290001 82.470001 40.669998 81.699997 41.869999 80.730003 C 38.810001 78.860001 39.459999 79.029999 41.599998 79.089996 C 37.93 77.449997 42.130001 77.57 41.93 76.730003 C 40.509998 76.449997 34.900002 74.230003 38.200001 76.910004 C 34.84 75.199997 37.400002 77.550003 36.380001 77.300003 C 32.939999 76.360001 39.439999 79.919998 35.84 79.029999 C 37.810001 80.589996 41.139999 83.029999 36.669998 80.68 C 36.099998 81.529999 39.880001 82.82 40.810001 83.459999 Z M 46.18 86.550003 C 52.709999 88.650002 42.98 83.970001 46.18 86.550003 Z M 73.68 103.199997 C 73.760002 101.900002 72.779999 104.309998 73.68 103.199997 Z M 76.5 104.389999 C 78.010002 102.93 76.559998 106.720001 79 104.029999 C 79.029999 102.110001 78.93 100.970001 76.199997 103.309998 C 75.449997 103.730003 75.110001 105.5 76.5 104.389999 Z M 31.65 76.220001 C 31.18 74.400002 28.4 74.410004 31.65 76.220001 Z M 34.66 78.199997 C 33.540001 76.339996 30.66 76.519997 34.66 78.199997 Z M 51.830002 88.550003 C 53.509998 90.040001 59.529999 89.639999 53.860001 88.730003 C 53.029999 87.489998 48.540001 87.790001 51.830002 88.550003 Z M 75.43 103.120003 C 78 100.959999 72.93 104.089996 75.43 103.120003 Z M 80.790001 106.809998 C 80.809998 106.120003 79.68 107.110001 80.790001 106.809998 Z M 80.800003 105.839996 C 83.660004 102.809998 78.029999 106.019997 80.800003 105.839996 Z M 24.219999 70.010002 C 21.790001 66.540001 22.709999 64.980003 20.360001 62.139999 C 19.91 59.970001 16.33 55.050003 18.51 60.259995 C 20.5 63.309998 21.09 68.029999 24.219999 70.010002 Z M 79.900002 104.879997 C 85.160004 101.480003 77.75 103.400002 79.900002 104.879997 Z M 83.910004 106.449997 C 86.550003 104.190002 82.25 105.980003 83.910004 106.449997 Z M 30.75 72.379997 C 31.51 71.260002 28.809999 72.239998 30.75 72.379997 Z M 83.080002 105.370003 C 85.629997 103.730003 82.489998 103.980003 82.620003 105.519997 L 83.080002 105.370003 Z M 48.5 83.580002 C 48.41 82.470001 47.150002 83.669998 48.5 83.580002 Z M 50.639999 84.809998 C 49.950001 83.43 49.59 85.019997 50.639999 84.809998 Z M 87.169998 106.480003 C 90.440002 104.120003 85.190002 106.029999 86.489998 106.93 L 87.169998 106.480003 Z M 85.910004 105.879997 C 88.580002 103.650002 83.110001 106.870003 85.910004 105.879997 Z M 92.300003 110.129997 C 94.089996 108.940002 90.129997 109.75 92.300003 110.129997 Z M 32.389999 71.57 C 34.779999 72.110001 41.950001 77.459999 37.720001 71.940002 C 35.549999 71.300003 36.849998 66 34.639999 66.940002 C 36.119999 69.419998 35.860001 70.470001 32.740002 68.910004 C 28.83 67 30.540001 69.849998 31.309999 70.639999 C 30.27 70.889999 32.700001 71.550003 32.389999 71.57 Z M 21.49 62.959999 C 21.92 61.190002 17.540001 53.209999 19.42 58.959999 C 20.1 60.169998 20.030001 62.449997 21.49 62.959999 Z M 41.5 75.300003 C 40.27 74.269997 41.439999 75.150002 41.5 75.300003 Z M 44.529999 76.010002 C 44.529999 74.129997 41.18 75.239998 44.529999 76.010002 Z M 70.830002 92.580002 C 70.330002 91.300003 68.849998 92.559998 70.830002 92.580002 Z M 72.089996 93.510002 C 71.910004 92.790001 71.370003 93.650002 72.089996 93.510002 Z M 82.519997 100.07 C 83.519997 99.330002 81.269997 99.980003 82.519997 100.07 Z M 26.93 64.349998 C 29.799999 63.240005 23.860001 63.559998 26.93 64.349998 Z M 68.519997 90.550003 C 68.480003 88.690002 66.690002 91.010002 68.519997 90.550003 Z M 25.799999 61.709999 C 27.639999 61.089996 24.09 61.300003 25.799999 61.709999 Z M 31.139999 64.300003 C 31.110001 63.690002 30.58 64.529999 31.139999 64.300003 Z M 96.360001 104.290001 C 98.730003 103.809998 104.129997 105.5 105 103.660004 C 102.120003 103.589996 95.050003 101.629997 94.720001 104.120003 L 95.349998 104.220001 L 96.360001 104.290001 Z M 32.84 64.730003 C 32.889999 62.849998 31.379999 64.660004 32.84 64.730003 Z M 18.790001 54.979996 C 18.15 51.400002 16.360001 54.440002 18.790001 54.979996 Z M 22.139999 55.82 C 22.18 54.669998 19.07 54.790001 22.139999 55.82 Z M 24.049999 56.759995 C 23.5 56.32 23.620001 57.330002 24.049999 56.759995 Z M 36.110001 64.489998 C 36.68 63.970001 34.759998 64.110001 36.110001 64.489998 Z M 22.780001 54.639999 C 22.450001 51.93 18.9 54.240005 22.780001 54.639999 Z M 15.91 50.18 C 15.81 48.93 15.24 50.650002 15.91 50.18 Z M 16.93 49.410004 C 16.76 47.93 16.049999 49.599998 16.93 49.410004 Z M 22.58 52.779999 C 24.969999 51.839996 18.23 50.839996 22.09 52.599998 L 22.58 52.779999 Z M 98.169998 99.470001 C 99.699997 98.07 96.230003 99.040001 98.169998 99.470001 Z M 107.300003 104.209999 C 107.910004 102.400002 105.760002 104.440002 107.300003 104.209999 Z M 23.15 49.82 C 23.41 48.07 21.26 50.169998 23.15 49.82 Z M 15.12 44.440002 C 14.69 41.970001 14.75 37.619995 18.879999 39.089996 C 13.37 40.190002 22.700001 45.940002 21.52 41.400002 C 23.84 41.509995 26.049999 40.029999 24.84 42.279999 C 29.41 41.779999 32.57 37.82 36.98 38.369995 C 40.419998 37.910004 44.169998 37.57 47.869999 36.190002 C 50.91 35.970001 53.84 32.690002 52.18 30.75 C 48.029999 30.400002 43.68 30.919998 39.099998 31.830002 C 34.02 32.889999 29.4 34.889999 24.27 35.759995 C 19.27 36.43 25.27 37.610001 23.84 37.869995 C 21.23 38.770004 26.950001 39.389999 23.5 40.339996 C 21.370001 39.93 19.15 39.199997 20.059999 36.959999 C 15.27 37.580002 11.06 39.57 14.85 44.440002 L 15.12 44.440002 Z M 26.66 38.559998 C 27.780001 34.419998 32.669998 41.959999 28.5 39.110001 C 28 38.729996 27.18 38.43 26.66 38.559998 Z M 26.879999 36.550003 C 28.5 35.349998 27.74 37.229996 26.879999 36.550003 Z M 28.940001 36.589996 C 29.09 34.690002 33.650002 37.599998 29.690001 37.270004 L 28.940001 36.589996 Z M 31.75 35.449997 C 32.779999 34.25 32.049999 36.520004 31.75 35.449997 Z M 32.470001 34.970001 C 34.18 32.910004 42.16 33.660004 36.32 34.770004 C 34.759998 33.589996 33.560001 35.470001 32.470001 34.970001 Z M 42.889999 33.369995 C 42.630001 27.75 48.07 35.360001 42.889999 33.369995 Z M 45.849998 33.349998 C 46.93 30.520004 50.049999 32.209999 46.349998 32.779999 C 46.43 33.080002 46.240002 34.240005 45.849998 33.349998 Z M 21.99 48.369995 C 25.219999 46.389999 18.559999 46.650002 21.99 48.369995 Z M 24.379999 49.029999 C 25.51 47.830002 21.92 48.540001 24.379999 49.029999 Z M 17.34 44.040001 C 19.190001 42.619995 15.16 43.5 17.34 44.040001 Z M 112.690002 103.690002 C 112.739998 102.040001 111.279999 104.43 112.690002 103.690002 Z M 103 97.080002 C 103.279999 95.18 101.760002 97.239998 103 97.080002 Z M 115.360001 104.330002 C 117.940002 104.339996 123.18 103.529999 117.559998 103.529999 C 116.68 103.660004 112.43 103.639999 115.360001 104.330002 Z M 26.48 47.869995 C 28.57 47.729996 29.75 45.57 26.07 45.690002 C 20.379999 45.099998 31.09 47.639999 25.34 46.910004 C 24.57 47.419998 26.43 48.009995 26.48 47.869995 Z M 28.32 48.800003 C 28.1 47.459999 27.67 49.509995 28.32 48.800003 Z M 30.5 42.979996 C 31.4 41.860001 29.24 42.68 30.5 42.979996 Z M 23.549999 31.379997 C 27.280001 30.110001 32.369999 28.690002 34.130001 32 C 32.34 29.849998 33.41 27.720001 35.099998 30.879997 C 37.490002 34.07 38.689999 29.43 37.130001 28.360001 C 38.900002 30.559998 40.919998 31.599998 38.32 28.5 C 41.150002 25.099998 32.66 28.949997 30.73 28.910004 C 29.809999 29.32 21.15 31.110001 23.549999 31.379997 Z M 25.74 27.199997 C 27.870001 25.599998 33.09 28.160004 29.74 25.610001 C 29.41 25.309998 22.389999 27.540001 25.74 27.199997 Z M 33.490002 27.520004 C 35.98 27.580002 32.419998 24.18 35.380001 25.720001 C 34.889999 24.129997 31.93 23.830002 30.48 23.199997 C 29.66 24.650002 32.139999 27.540001 33.490002 27.520004 Z M 27.1 20.479996 C 27.959999 19.32 25.59 21.080002 27.1 20.479996 Z M 30.26 21.239998 C 34.27 20.709999 29.24 19.520004 29.450001 21.199997 L 30.26 21.239998 Z M 24.35 16.620003 C 21.530001 12.93 29.66 17.239998 26.790001 13.379997 C 24.379999 11.459999 22.059999 15.540001 24.35 16.620003 Z M 60.560001 36.119995 C 61.849998 33.830002 55.220001 33.029999 59.689999 35.309998 C 60.110001 35.449997 60.009998 36.279999 60.560001 36.119995 Z"/>
</svg>
